<?xml version="1.0" encoding="utf-8"?>
<svg version="1.1" xmlns="http://www.w3.org/2000/svg" viewBox="0 0 256 256">
<path fill="#e07ef4" d="M245.6,149.5c2.7-10.1-9.6-13.6-18.6-14.8c4,5.9,13.2,12.4,18.3,15.5C245.4,150,245.6,149.8,245.6,149.5z"/>
<path fill="#e07ef4" d="M56.9,106.2c0.8,0,1.5,0.2,2.3,0.6c17,8.5,42.3,36,53,63.3c9.9,25.2,11.5,43.8,12.4,53.9l0.3,2.7c0.6,5.9,10.3,9.2,27.3,9.2c17.5,0,42.6-3.4,74.6-10.2c2-5.9,12.1-36.3,16.8-71.7c0,0,0,0-0.1,0c-4.4-2.7-17.5-11.1-21.4-19.6c-0.5-1.1-0.9-2.3-1-3.4c-0.5-3.7-9.4-6-23.2-6c-3.3,0-5.9,0.1-7.1,0.2c-2.3,2.1-10.9,9.1-23,9.1c-8.9,0-17.7-3.8-26-11.3C116.8,100,34.1,22.6,31.7,20.4c0,0-0.5-0.2-1.2-0.2c-1.3,0-4.7,1-8.2,10.3c-0.9,2.4-2,4.9-3.3,7.7c-6.9,15.7-16.5,37.3,0.6,61.1c19.6,27.2,14.6,115.7,13.6,130.9l11.1,0.3c-0.5-18.4-2.6-110.6,8.9-122.5C54.6,106.5,56,106.2,56.9,106.2z"/>
</svg>
